<?xml version="1.0" standalone="no"?>
<!DOCTYPE svg PUBLIC "-//W3C//DTD SVG 20010904//EN"
 "http://www.w3.org/TR/2001/REC-SVG-20010904/DTD/svg10.dtd">
<svg version="1.0" xmlns="http://www.w3.org/2000/svg"
 width="16.000000pt" height="16.000000pt" viewBox="0 0 16.000000 16.000000"
 preserveAspectRatio="xMidYMid meet">

<g transform="translate(0.000000,16.000000) scale(0.100000,-0.100000)"
fill="#000000" stroke="none">
<path d="M57 136 c-9 -22 19 -42 37 -26 19 15 10 40 -14 40 -10 0 -20 -6 -23
-14z"/>
<path d="M23 80 c7 -51 22 -70 57 -70 35 0 50 19 57 70 7 47 -15 56 -37 15 -7
-14 -16 -25 -20 -25 -4 0 -13 11 -20 25 -22 41 -44 32 -37 -15z"/>
</g>
</svg>
